{"title":"Flo Rida ft. Nelly Furtado - Jump [Official Music Video] [Sbyky]","uid":7146352,"size":87141540,"categoryP":"video","categoryS":"music_videos","magnet":"?xt=urn:btih:d8d70cec78a308680ab19b12095b6ba0a7501db6&amp;dn=Flo+Rida+ft.+Nelly+Furtado+-+Jump+%5BOfficial+Music+Video%5D+%5BSbyky%5D&amp;tr=udp%3A%2F%2Ftracker.openbittorrent.com%3A80&amp;tr=udp%3A%2F%2Fopen.demonii.com%3A1337&amp;tr=udp%3A%2F%2Ftracker.coppersurfer.tk%3A6969&amp;tr=udp%3A%2F%2Fexodus.desync.com%3A6969","seeders":1,"leechers":1,"uploader":"Sbyky","files":4,"time":1333157300,"description":"General\nName                                     : Flo_Rida_ft._Nelly_Furtado_-_Jump.avi\nFormat                                   : AVI\nFormat/Info                              : Audio Video Interleave\nFile size                                : 83.1 MiB\nDuration                                 : 3mn 17s\nOverall bit rate                         : 3 536 Kbps\n\nVideo\nID                                       : 0\nFormat                                   : MPEG-4 Visual\nFormat profile                           : Advanced Simple@L5\nFormat settings, BVOP                    : 2\nFormat settings, QPel                    : No\nFormat settings, GMC                     : No warppoints\nFormat settings, Matrix                  : Default (H.263)\nMuxing mode                              : Packed bitstream\nCodec ID                                 : XVID\nCodec ID/Hint                            : XviD\nDuration                                 : 3mn 17s\nBit rate                                 : 3 332 Kbps\nWidth                                    : 1 280 pixels\nHeight                                   : 720 pixels\nDisplay aspect ratio                     : 16:9\nFrame rate                               : 30.000 fps\nColor space                              : YUV\nChroma subsampling                       : 4:2:0\nBit depth                                : 8 bits\nScan type                                : Progressive\nCompression mode                         : Lossy\nBits/(Pixel*Frame)                       : 0.121\nStream size                              : 78.3 MiB (94%)\nWriting library                          : XviD 1.2.1 (UTC 2008-12-04)\n\nAudio\nID                                       : 1\nFormat                                   : MPEG Audio\nFormat version                           : Version 1\nFormat profile                           : Layer 3\nCodec ID                                 : 55\nCodec ID/Hint                            : MP3\nDuration                                 : 3mn 17s\nBit rate mode                            : Constant\nBit rate                                 : 192 Kbps\nChannel(s)                               : 2 channels\nSampling rate                            : 44.1 KHz\nCompression mode                         : Lossy\nDelay relative to video                  : 26ms\nStream size                              : 4.51 MiB (5%)\nAlignment                                : Split accross interleaves\nInterleave, duration                     : 33 ms (1.00 video frame)\nTitle                                    : Audio Stream\nWriting library                          : LAME3.92\n","torrent":{"xt":"urn:btih:d8d70cec78a308680ab19b12095b6ba0a7501db6","amp;dn":"Flo+Rida+ft.+Nelly+Furtado+-+Jump+%5BOfficial+Music+Video%5D+%5BSbyky%5D","amp;tr":["udp%3A%2F%2Ftracker.openbittorrent.com%3A80","udp%3A%2F%2Fopen.demonii.com%3A1337","udp%3A%2F%2Ftracker.coppersurfer.tk%3A6969","udp%3A%2F%2Fexodus.desync.com%3A6969"],"infoHash":"d8d70cec78a308680ab19b12095b6ba0a7501db6","infoHashBuffer":{"type":"Buffer","data":[216,215,12,236,120,163,8,104,10,177,155,18,9,91,107,160,167,80,29,182]},"announce":[],"urlList":[]}}